<svg xmlns="http://www.w3.org/2000/svg" width="18" height="18" fill="currentColor" viewBox="0 0 18 18">
  <path d="M15 2a3 3 0 0 1 3 3v8a3 3 0 0 1-3 3H3a3 3 0 0 1-3-3V5a3 3 0 0 1 3-3zM3.013 5.75v6.5h1.375V9.564h2.789v2.686h1.37v-6.5h-1.37v2.682h-2.79V5.75zm6.49 0v6.5h2.304q.99 0 1.7-.39a2.64 2.64 0 0 0 1.095-1.12q.385-.73.385-1.746 0-1.012-.385-1.74a2.63 2.63 0 0 0-1.087-1.113q-.708-.39-1.689-.391zm2.25 1.178q.61 0 1.025.216.416.215.625.672.213.458.213 1.178 0 .726-.213 1.187-.21.457-.629.675-.415.216-1.024.216h-.873V6.928z"/>
</svg>
