<svg xmlns="http://www.w3.org/2000/svg">
  <defs>
    <symbol viewBox="0 0 48 48" id="vjs-icon-play">
      <path d="M16 10v28l22-14z"></path>
    </symbol>
    <symbol viewBox="0 0 48 48" id="vjs-icon-pause">
      <path d="M12 38h8V10h-8v28zm16-28v28h8V10h-8z"></path>
    </symbol>
    <symbol viewBox="0 0 48 48" id="vjs-icon-audio">
      <path d="M24 2C14.06 2 6 10.06 6 20v14c0 3.31 2.69 6 6 6h6V24h-8v-4c0-7.73 6.27-14 14-14s14 6.27 14 14v4h-8v16h6c3.31 0 6-2.69 6-6V20c0-9.94-8.06-18-18-18z"></path>
    </symbol>
    <symbol viewBox="0 0 48 48" id="vjs-icon-captions">
      <path d="M38 8H10c-2.21 0-4 1.79-4 4v24c0 2.21 1.79 4 4 4h28c2.21 0 4-1.79 4-4V12c0-2.21-1.79-4-4-4zM22 22h-3v-1h-4v6h4v-1h3v2a2 2 0 0 1-2 2h-6a2 2 0 0 1-2-2v-8a2 2 0 0 1 2-2h6a2 2 0 0 1 2 2v2zm14 0h-3v-1h-4v6h4v-1h3v2a2 2 0 0 1-2 2h-6a2 2 0 0 1-2-2v-8a2 2 0 0 1 2-2h6a2 2 0 0 1 2 2v2z"></path>
    </symbol>
    <symbol viewBox="0 0 48 48" id="vjs-icon-subtitles">
      <path d="M40 8H8c-2.21 0-4 1.79-4 4v24c0 2.21 1.79 4 4 4h32c2.21 0 4-1.79 4-4V12c0-2.21-1.79-4-4-4zM8 24h8v4H8v-4zm20 12H8v-4h20v4zm12 0h-8v-4h8v4zm0-8H20v-4h20v4z"></path>
    </symbol>
    <symbol viewBox="0 0 48 48" id="vjs-icon-fullscreen-enter">
      <path d="M14 28h-4v10h10v-4h-6v-6zm-4-8h4v-6h6v-4H10v10zm24 14h-6v4h10V28h-4v6zm-6-24v4h6v6h4V10H28z"></path>
    </symbol>
    <symbol viewBox="0 0 48 48" id="vjs-icon-fullscreen-exit">
      <path d="M10 32h6v6h4V28H10v4zm6-16h-6v4h10V10h-4v6zm12 22h4v-6h6v-4H28v10zm4-22v-6h-4v10h10v-4h-6z"></path>
    </symbol>
    <symbol viewBox="0 0 48 48" id="vjs-icon-play-circle">
      <path d="M20 33l12-9-12-9v18zm4-29C12.95 4 4 12.95 4 24s8.95 20 20 20 20-8.95 20-20S35.05 4 24 4zm0 36c-8.82 0-16-7.18-16-16S15.18 8 24 8s16 7.18 16 16-7.18 16-16 16z"></path>
    </symbol>
    <symbol viewBox="0 0 48 48" id="vjs-icon-volume-mute">
      <path d="M33 24c0-3.53-2.04-6.58-5-8.05v4.42l4.91 4.91c.06-.42.09-.85.09-1.28zm5 0c0 1.88-.41 3.65-1.08 5.28l3.03 3.03C41.25 29.82 42 27 42 24c0-8.56-5.99-15.72-14-17.54v4.13c5.78 1.72 10 7.07 10 13.41zM8.55 6L6 8.55 15.45 18H6v12h8l10 10V26.55l8.51 8.51c-1.34 1.03-2.85 1.86-4.51 2.36v4.13a17.94 17.94 0 0 0 7.37-3.62L39.45 42 42 39.45l-18-18L8.55 6zM24 8l-4.18 4.18L24 16.36V8z"></path>
    </symbol>
    <symbol viewBox="0 0 48 48" id="vjs-icon-volume-low">
      <path d="M14 18v12h8l10 10V8L22 18h-8z"></path>
    </symbol>
    <symbol viewBox="0 0 48 48" id="vjs-icon-volume-medium">
      <path d="M37 24c0-3.53-2.04-6.58-5-8.05v16.11c2.96-1.48 5-4.53 5-8.06zm-27-6v12h8l10 10V8L18 18h-8z"></path>
    </symbol>
    <symbol viewBox="0 0 48 48" id="vjs-icon-volume-high">
      <path d="M6 18v12h8l10 10V8L14 18H6zm27 6c0-3.53-2.04-6.58-5-8.05v16.11c2.96-1.48 5-4.53 5-8.06zM28 6.46v4.13c5.78 1.72 10 7.07 10 13.41s-4.22 11.69-10 13.41v4.13c8.01-1.82 14-8.97 14-17.54S36.01 8.28 28 6.46z"></path>
    </symbol>
    <symbol viewBox="0 0 48 48" id="vjs-icon-spinner">
      <path d="M18.8 21l9.53-16.51C26.94 4.18 25.49 4 24 4c-4.8 0-9.19 1.69-12.64 4.51l7.33 12.69.11-.2zm24.28-3c-1.84-5.85-6.3-10.52-11.99-12.68L23.77 18h19.31zm.52 2H28.62l.58 1 9.53 16.5C41.99 33.94 44 29.21 44 24c0-1.37-.14-2.71-.4-4zm-26.53 4l-7.8-13.5C6.01 14.06 4 18.79 4 24c0 1.37.14 2.71.4 4h14.98l-2.31-4zM4.92 30c1.84 5.85 6.3 10.52 11.99 12.68L24.23 30H4.92zm22.54 0l-7.8 13.51c1.4.31 2.85.49 4.34.49 4.8 0 9.19-1.69 12.64-4.51L29.31 26.8 27.46 30z"></path>
    </symbol>
    <symbol viewBox="0 0 24 24" id="vjs-icon-hd">
      <path d="M19 3H5a2 2 0 0 0-2 2v14a2 2 0 0 0 2 2h14c1.1 0 2-.9 2-2V5c0-1.1-.9-2-2-2zm-8 12H9.5v-2h-2v2H6V9h1.5v2.5h2V9H11v6zm2-6h4c.55 0 1 .45 1 1v4c0 .55-.45 1-1 1h-4V9zm1.5 4.5h2v-3h-2v3z"></path>
    </symbol>
    <symbol viewBox="0 0 48 48" id="vjs-icon-chapters">
      <path d="M6 26h4v-4H6v4zm0 8h4v-4H6v4zm0-16h4v-4H6v4zm8 8h28v-4H14v4zm0 8h28v-4H14v4zm0-20v4h28v-4H14z"></path>
    </symbol>
    <symbol viewBox="0 0 40 40" id="vjs-icon-downloading">
      <path d="M18.208 36.875q-3.208-.292-5.979-1.729-2.771-1.438-4.812-3.729-2.042-2.292-3.188-5.229-1.146-2.938-1.146-6.23 0-6.583 4.334-11.416 4.333-4.834 10.833-5.5v3.166q-5.167.75-8.583 4.646Q6.25 14.75 6.25 19.958q0 5.209 3.396 9.104 3.396 3.896 8.562 4.646zM20 28.417L11.542 20l2.083-2.083 4.917 4.916v-11.25h2.916v11.25l4.875-4.916L28.417 20zm1.792 8.458v-3.167q1.833-.25 3.541-.958 1.709-.708 3.167-1.875l2.333 2.292q-1.958 1.583-4.25 2.541-2.291.959-4.791 1.167zm6.791-27.792q-1.541-1.125-3.25-1.854-1.708-.729-3.541-1.021V3.042q2.5.25 4.77 1.208 2.271.958 4.271 2.5zm4.584 21.584l-2.25-2.25q1.166-1.5 1.854-3.209.687-1.708.937-3.541h3.209q-.292 2.5-1.229 4.791-.938 2.292-2.521 4.209zm.541-12.417q-.291-1.833-.958-3.562-.667-1.73-1.833-3.188l2.375-2.208q1.541 1.916 2.458 4.208.917 2.292 1.167 4.75z"></path>
    </symbol>
    <symbol viewBox="0 0 48 48" id="vjs-icon-file-download">
      <path d="M10.8 40.55q-1.35 0-2.375-1T7.4 37.15v-7.7h3.4v7.7h26.35v-7.7h3.4v7.7q0 1.4-1 2.4t-2.4 1zM24 32.1L13.9 22.05l2.45-2.45 5.95 5.95V7.15h3.4v18.4l5.95-5.95 2.45 2.45z"></path>
    </symbol>
    <symbol viewBox="0 0 48 48" id="vjs-icon-file-download-done">
      <path d="M9.8 40.5v-3.45h28.4v3.45zm9.2-9.05L7.4 19.85l2.45-2.35L19 26.65l19.2-19.2 2.4 2.4z"></path>
    </symbol>
    <symbol viewBox="0 0 48 48" id="vjs-icon-file-download-off">
      <path d="M4.9 4.75L43.25 43.1 41 45.3l-4.75-4.75q-.05.05-.075.025-.025-.025-.075-.025H10.8q-1.35 0-2.375-1T7.4 37.15v-7.7h3.4v7.7h22.05l-7-7-1.85 1.8L13.9 21.9l1.85-1.85L2.7 7zm26.75 14.7l2.45 2.45-3.75 3.8-2.45-2.5zM25.7 7.15V21.1l-3.4-3.45V7.15z"></path>
    </symbol>
    <symbol viewBox="0 0 48 48" id="vjs-icon-share">
      <path d="M36 32.17c-1.52 0-2.89.59-3.93 1.54L17.82 25.4c.11-.45.18-.92.18-1.4s-.07-.95-.18-1.4l14.1-8.23c1.07 1 2.5 1.62 4.08 1.62 3.31 0 6-2.69 6-6s-2.69-6-6-6-6 2.69-6 6c0 .48.07.95.18 1.4l-14.1 8.23c-1.07-1-2.5-1.62-4.08-1.62-3.31 0-6 2.69-6 6s2.69 6 6 6c1.58 0 3.01-.62 4.08-1.62l14.25 8.31c-.1.42-.16.86-.16 1.31A5.83 5.83 0 1 0 36 32.17z"></path>
    </symbol>
    <symbol viewBox="0 0 48 48" id="vjs-icon-cog">
      <path d="M38.86 25.95c.08-.64.14-1.29.14-1.95s-.06-1.31-.14-1.95l4.23-3.31c.38-.3.49-.84.24-1.28l-4-6.93c-.25-.43-.77-.61-1.22-.43l-4.98 2.01c-1.03-.79-2.16-1.46-3.38-1.97L29 4.84c-.09-.47-.5-.84-1-.84h-8c-.5 0-.91.37-.99.84l-.75 5.3a14.8 14.8 0 0 0-3.38 1.97L9.9 10.1a1 1 0 0 0-1.22.43l-4 6.93c-.25.43-.14.97.24 1.28l4.22 3.31C9.06 22.69 9 23.34 9 24s.06 1.31.14 1.95l-4.22 3.31c-.38.3-.49.84-.24 1.28l4 6.93c.25.43.77.61 1.22.43l4.98-2.01c1.03.79 2.16 1.46 3.38 1.97l.75 5.3c.08.47.49.84.99.84h8c.5 0 .91-.37.99-.84l.75-5.3a14.8 14.8 0 0 0 3.38-1.97l4.98 2.01a1 1 0 0 0 1.22-.43l4-6.93c.25-.43.14-.97-.24-1.28l-4.22-3.31zM24 31c-3.87 0-7-3.13-7-7s3.13-7 7-7 7 3.13 7 7-3.13 7-7 7z"></path>
    </symbol>
    <symbol viewBox="0 0 48 48" id="vjs-icon-square">
      <path d="M36 8H12c-2.21 0-4 1.79-4 4v24c0 2.21 1.79 4 4 4h24c2.21 0 4-1.79 4-4V12c0-2.21-1.79-4-4-4zm0 28H12V12h24v24z"></path>
    </symbol>
    <symbol viewBox="0 0 48 48" id="vjs-icon-circle">
      <circle cx="24" cy="24" r="20"></circle>
    </symbol>
    <symbol viewBox="0 0 48 48" id="vjs-icon-circle-outline">
      <path d="M24 4C12.95 4 4 12.95 4 24s8.95 20 20 20 20-8.95 20-20S35.05 4 24 4zm0 36c-8.82 0-16-7.18-16-16S15.18 8 24 8s16 7.18 16 16-7.18 16-16 16z"></path>
    </symbol>
    <symbol viewBox="0 0 48 48" id="vjs-icon-circle-inner-circle">
      <path d="M24 4C12.97 4 4 12.97 4 24s8.97 20 20 20 20-8.97 20-20S35.03 4 24 4zm0 36c-8.82 0-16-7.18-16-16S15.18 8 24 8s16 7.18 16 16-7.18 16-16 16zm6-16c0 3.31-2.69 6-6 6s-6-2.69-6-6 2.69-6 6-6 6 2.69 6 6z"></path>
    </symbol>
    <symbol viewBox="0 0 48 48" id="vjs-icon-cancel">
      <path d="M24 4C12.95 4 4 12.95 4 24s8.95 20 20 20 20-8.95 20-20S35.05 4 24 4zm10 27.17L31.17 34 24 26.83 16.83 34 14 31.17 21.17 24 14 16.83 16.83 14 24 21.17 31.17 14 34 16.83 26.83 24 34 31.17z"></path>
    </symbol>
    <symbol viewBox="0 0 48 48" id="vjs-icon-replay">
      <path d="M24 10V2L14 12l10 10v-8c6.63 0 12 5.37 12 12s-5.37 12-12 12-12-5.37-12-12H8c0 8.84 7.16 16 16 16s16-7.16 16-16-7.16-16-16-16z"></path>
    </symbol>
    <symbol viewBox="0 0 48 48" id="vjs-icon-repeat">
      <path d="M14 14h20v6l8-8-8-8v6H10v12h4v-8zm20 20H14v-6l-8 8 8 8v-6h24V26h-4v8z"></path>
    </symbol>
    <symbol viewBox="0 96 48 48" id="vjs-icon-replay-5">
      <path d="M17.689 98l-8.697 8.696 8.697 8.697 2.486-2.485-4.32-4.319h1.302c4.93 0 9.071 1.722 12.424 5.165 3.352 3.443 5.029 7.638 5.029 12.584h3.55c0-2.958-.553-5.73-1.658-8.313-1.104-2.583-2.622-4.841-4.555-6.774-1.932-1.932-4.19-3.45-6.773-4.555-2.584-1.104-5.355-1.657-8.313-1.657H15.5l4.615-4.615zm-8.08 21.659v13.861h11.357v5.008H9.609V143h12.7c.834 0 1.55-.298 2.146-.894.596-.597.895-1.31.895-2.145v-7.781c0-.835-.299-1.55-.895-2.147a2.929 2.929 0 0 0-2.147-.894h-8.227v-5.096H25.35v-4.384z"></path>
    </symbol>
    <symbol viewBox="0 96 48 48" id="vjs-icon-replay-10">
      <path d="M42.315 125.63c0-4.997-1.694-9.235-5.08-12.713-3.388-3.479-7.571-5.218-12.552-5.218h-1.315l4.363 4.363-2.51 2.51-8.787-8.786L25.221 97l2.45 2.45-4.662 4.663h1.375c2.988 0 5.788.557 8.397 1.673 2.61 1.116 4.892 2.65 6.844 4.602 1.953 1.953 3.487 4.234 4.602 6.844 1.116 2.61 1.674 5.41 1.674 8.398zM8.183 142v-19.657H3.176V117.8h9.643V142zm13.63 0c-1.156 0-2.127-.393-2.912-1.178-.778-.778-1.168-1.746-1.168-2.902v-16.04c0-1.156.393-2.127 1.178-2.912.779-.779 1.746-1.168 2.902-1.168h7.696c1.156 0 2.126.392 2.911 1.177.779.78 1.168 1.747 1.168 2.903v16.04c0 1.156-.392 2.127-1.177 2.912-.779.779-1.746 1.168-2.902 1.168zm.556-4.636h6.583v-15.02H22.37z"></path>
    </symbol>
    <symbol viewBox="0 96 48 48" id="vjs-icon-replay-30">
      <path d="M26.047 97l-8.733 8.732 8.733 8.733 2.496-2.494-4.336-4.338h1.307c4.95 0 9.108 1.73 12.474 5.187 3.367 3.458 5.051 7.668 5.051 12.635h3.565c0-2.97-.556-5.751-1.665-8.346-1.109-2.594-2.633-4.862-4.574-6.802-1.94-1.941-4.208-3.466-6.803-4.575-2.594-1.109-5.375-1.664-8.345-1.664H23.85l4.634-4.634zM2.555 117.531v4.688h10.297v5.25H5.873v4.687h6.979v5.156H2.555V142H13.36c1.061 0 1.95-.395 2.668-1.186.718-.79 1.076-1.772 1.076-2.94v-16.218c0-1.168-.358-2.149-1.076-2.94-.717-.79-1.607-1.185-2.668-1.185zm22.482.14c-1.149 0-2.11.39-2.885 1.165-.78.78-1.172 1.744-1.172 2.893v15.943c0 1.149.388 2.11 1.163 2.885.78.78 1.745 1.172 2.894 1.172h7.649c1.148 0 2.11-.388 2.884-1.163.78-.78 1.17-1.745 1.17-2.894v-15.943c0-1.15-.386-2.111-1.16-2.885-.78-.78-1.746-1.172-2.894-1.172zm.553 4.518h6.545v14.93H25.59z"></path>
    </symbol>
    <symbol viewBox="0 96 48 48" id="vjs-icon-forward-5">
      <path d="M29.508 97l-2.431 2.43 4.625 4.625h-1.364c-2.965 0-5.742.554-8.332 1.66-2.589 1.107-4.851 2.629-6.788 4.566-1.937 1.937-3.458 4.2-4.565 6.788-1.107 2.59-1.66 5.367-1.66 8.331h3.557c0-4.957 1.68-9.16 5.04-12.611 3.36-3.45 7.51-5.177 12.451-5.177h1.304l-4.326 4.33 2.49 2.49 8.715-8.716zm-9.783 21.61v13.89h11.382v5.018H19.725V142h12.727a2.93 2.93 0 0 0 2.15-.896 2.93 2.93 0 0 0 .896-2.15v-7.798c0-.837-.299-1.554-.896-2.152a2.93 2.93 0 0 0-2.15-.896h-8.245V123h11.29v-4.392z"></path>
    </symbol>
    <symbol viewBox="0 96 48 48" id="vjs-icon-forward-10">
      <path d="M23.119 97l-2.386 2.383 4.538 4.538h-1.339c-2.908 0-5.633.543-8.173 1.63-2.54 1.085-4.76 2.577-6.66 4.478-1.9 1.9-3.392 4.12-4.478 6.66-1.085 2.54-1.629 5.264-1.629 8.172h3.49c0-4.863 1.648-8.986 4.944-12.372 3.297-3.385 7.368-5.078 12.216-5.078h1.279l-4.245 4.247 2.443 2.442 8.55-8.55zm-9.52 21.45v4.42h4.871V142h4.513v-23.55zm18.136 0c-1.125 0-2.066.377-2.824 1.135-.764.764-1.148 1.709-1.148 2.834v15.612c0 1.124.38 2.066 1.139 2.824.764.764 1.708 1.145 2.833 1.145h7.489c1.125 0 2.066-.378 2.824-1.136.764-.764 1.145-1.709 1.145-2.833v-15.612c0-1.125-.378-2.067-1.136-2.825-.764-.764-1.708-1.145-2.833-1.145zm.54 4.42h6.408v14.617h-6.407z"></path>
    </symbol>
    <symbol viewBox="0 96 48 48" id="vjs-icon-forward-30">
      <path d="M25.549 97l-2.437 2.434 4.634 4.635H26.38c-2.97 0-5.753.555-8.347 1.664-2.594 1.109-4.861 2.633-6.802 4.574-1.94 1.94-3.465 4.207-4.574 6.802-1.109 2.594-1.664 5.377-1.664 8.347h3.565c0-4.967 1.683-9.178 5.05-12.636 3.366-3.458 7.525-5.187 12.475-5.187h1.307l-4.335 4.338 2.495 2.494 8.732-8.732zm-11.553 20.53v4.689h10.297v5.249h-6.978v4.688h6.978v5.156H13.996V142h10.808c1.06 0 1.948-.395 2.666-1.186.718-.79 1.077-1.771 1.077-2.94v-16.217c0-1.169-.36-2.15-1.077-2.94-.718-.79-1.605-1.186-2.666-1.186zm21.174.168c-1.149 0-2.11.389-2.884 1.163-.78.78-1.172 1.745-1.172 2.894v15.942c0 1.15.388 2.11 1.162 2.885.78.78 1.745 1.17 2.894 1.17h7.649c1.149 0 2.11-.386 2.885-1.16.78-.78 1.17-1.746 1.17-2.895v-15.942c0-1.15-.387-2.11-1.161-2.885-.78-.78-1.745-1.172-2.894-1.172zm.552 4.516h6.542v14.931h-6.542z"></path>
    </symbol>
    <symbol viewBox="0 0 512 512" id="vjs-icon-audio-description">
      <g fill-rule="evenodd"><path d="M227.29 381.351V162.993c50.38-1.017 89.108-3.028 117.631 17.126 27.374 19.342 48.734 56.965 44.89 105.325-4.067 51.155-41.335 94.139-89.776 98.475-24.085 2.155-71.972 0-71.972 0s-.84-1.352-.773-2.568m48.755-54.804c31.43 1.26 53.208-16.633 56.495-45.386 4.403-38.51-21.188-63.552-58.041-60.796v103.612c-.036 1.466.575 2.22 1.546 2.57"></path><path d="M383.78 381.328c13.336 3.71 17.387-11.06 23.215-21.408 12.722-22.571 22.294-51.594 22.445-84.774.221-47.594-18.343-82.517-35.6-106.182h-8.51c-.587 3.874 2.226 7.315 3.865 10.276 13.166 23.762 25.367 56.553 25.54 94.194.2 43.176-14.162 79.278-30.955 107.894"></path><path d="M425.154 381.328c13.336 3.71 17.384-11.061 23.215-21.408 12.721-22.571 22.291-51.594 22.445-84.774.221-47.594-18.343-82.517-35.6-106.182h-8.511c-.586 3.874 2.226 7.315 3.866 10.276 13.166 23.762 25.367 56.553 25.54 94.194.2 43.176-14.162 79.278-30.955 107.894"></path><path d="M466.26 381.328c13.337 3.71 17.385-11.061 23.216-21.408 12.722-22.571 22.292-51.594 22.445-84.774.221-47.594-18.343-82.517-35.6-106.182h-8.51c-.587 3.874 2.225 7.315 3.865 10.276 13.166 23.762 25.367 56.553 25.54 94.194.2 43.176-14.162 79.278-30.955 107.894M4.477 383.005H72.58l18.573-28.484 64.169-.135s.065 19.413.065 28.62h48.756V160.307h-58.816c-5.653 9.537-140.85 222.697-140.85 222.697zm152.667-145.282v71.158l-40.453-.27 40.453-70.888z"></path></g>
    </symbol>
    <symbol viewBox="0 0 48 48" id="vjs-icon-next-item">
      <path d="M12 36l17-12-17-12v24zm20-24v24h4V12h-4z"></path>
    </symbol>
    <symbol viewBox="0 0 48 48" id="vjs-icon-previous-item">
      <path d="M12 12h4v24h-4zm7 12l17 12V12z"></path>
    </symbol>
    <symbol viewBox="0 0 48 48" id="vjs-icon-shuffle">
      <path d="M21.17 18.34L10.83 8 8 10.83l10.34 10.34 2.83-2.83zM29 8l4.09 4.09L8 37.17 10.83 40l25.09-25.09L40 19V8H29zm.66 18.83l-2.83 2.83 6.26 6.26L29 40h11V29l-4.09 4.09-6.25-6.26z"></path>
    </symbol>
    <symbol viewBox="0 0 48 48" id="vjs-icon-cast">
      <path d="M42 6H6c-2.21 0-4 1.79-4 4v6h4v-6h36v28H28v4h14c2.21 0 4-1.79 4-4V10c0-2.21-1.79-4-4-4zM2 36v6h6c0-3.31-2.69-6-6-6zm0-8v4c5.52 0 10 4.48 10 10h4c0-7.73-6.27-14-14-14zm0-8v4c9.94 0 18 8.06 18 18h4c0-12.15-9.85-22-22-22z"></path>
    </symbol>
    <symbol viewBox="0 0 48 48" id="vjs-icon-picture-in-picture-enter">
      <path d="M38 22H22v11.99h16V22zm8 16V9.96C46 7.76 44.2 6 42 6H6C3.8 6 2 7.76 2 9.96V38c0 2.2 1.8 4 4 4h36c2.2 0 4-1.8 4-4zm-4 .04H6V9.94h36v28.1z"></path>
    </symbol>
    <symbol viewBox="0 0 22 18" id="vjs-icon-picture-in-picture-exit">
      <path d="M18 4H4v10h14V4zm4 12V1.98C22 .88 21.1 0 20 0H2C.9 0 0 .88 0 1.98V16c0 1.1.9 2 2 2h18c1.1 0 2-.9 2-2zm-2 .02H2V1.97h18v14.05z"></path>
      <path fill="none" d="M-1-3h24v24H-1z"></path>
    </symbol>
    <symbol viewBox="0 0 1792 1792" id="vjs-icon-facebook">
      <path d="M1343 12v264h-157q-86 0-116 36t-30 108v189h293l-39 296h-254v759H734V905H479V609h255V391q0-186 104-288.5T1115 0q147 0 228 12z"></path>
    </symbol>
    <symbol viewBox="0 0 1792 1792" id="vjs-icon-linkedin">
      <path d="M477 625v991H147V625h330zm21-306q1 73-50.5 122T312 490h-2q-82 0-132-49t-50-122q0-74 51.5-122.5T314 148t133 48.5T498 319zm1166 729v568h-329v-530q0-105-40.5-164.5T1168 862q-63 0-105.5 34.5T999 982q-11 30-11 81v553H659q2-399 2-647t-1-296l-1-48h329v144h-2q20-32 41-56t56.5-52 87-43.5T1285 602q171 0 275 113.5t104 332.5z"></path>
    </symbol>
    <symbol viewBox="0 0 1792 1792" id="vjs-icon-twitter">
      <path d="M1684 408q-67 98-162 167 1 14 1 42 0 130-38 259.5T1369.5 1125 1185 1335.5t-258 146-323 54.5q-271 0-496-145 35 4 78 4 225 0 401-138-105-2-188-64.5T285 1033q33 5 61 5 43 0 85-11-112-23-185.5-111.5T172 710v-4q68 38 146 41-66-44-105-115t-39-154q0-88 44-163 121 149 294.5 238.5T884 653q-8-38-8-74 0-134 94.5-228.5T1199 256q140 0 236 102 109-21 205-78-37 115-142 178 93-10 186-50z"></path>
    </symbol>
    <symbol viewBox="0 0 1792 1792" id="vjs-icon-tumblr">
      <path d="M1328 1329l80 237q-23 35-111 66t-177 32q-104 2-190.5-26T787 1564t-95-106-55.5-120-16.5-118V676H452V461q72-26 129-69.5t91-90 58-102 34-99T779 12q1-5 4.5-8.5T791 0h244v424h333v252h-334v518q0 30 6.5 56t22.5 52.5 49.5 41.5 81.5 14q78-2 134-29z"></path>
    </symbol>
    <symbol viewBox="0 0 1792 1792" id="vjs-icon-pinterest">
      <path d="M1664 896q0 209-103 385.5T1281.5 1561 896 1664q-111 0-218-32 59-93 78-164 9-34 54-211 20 39 73 67.5t114 28.5q121 0 216-68.5t147-188.5 52-270q0-114-59.5-214T1180 449t-255-63q-105 0-196 29t-154.5 77-109 110.5-67 129.5T377 866q0 104 40 183t117 111q30 12 38-20 2-7 8-31t8-30q6-23-11-43-51-61-51-151 0-151 104.5-259.5T904 517q151 0 235.5 82t84.5 213q0 170-68.5 289T980 1220q-61 0-98-43.5T859 1072q8-35 26.5-93.5t30-103T927 800q0-50-27-83t-77-33q-62 0-105 57t-43 142q0 73 25 122l-99 418q-17 70-13 177-206-91-333-281T128 896q0-209 103-385.5T510.5 231 896 128t385.5 103T1561 510.5 1664 896z"></path>
    </symbol>
  </defs>
</svg>
