<svg xmlns="http://www.w3.org/2000/svg" width="18" height="18" fill="currentColor" viewBox="0 0 18 18">
  <path d="M11 3c2.828 0 4.242 0 5.121.878C17 4.757 17 6.172 17 9c0 2.829 0 4.243-.879 5.121s-2.293.88-5.121.88H7c-2.828 0-4.242-.001-5.121-.88C1 13.243 1 11.828 1 9.001c0-2.83 0-4.244.879-5.123C2.758 3 4.172 3 7 3zM3.25 6v6h1.556V9.564h2.45V12h1.556V6H7.256v2.331h-2.45v-2.33zm6.396 6h2.39q.988 0 1.71-.367a2.65 2.65 0 0 0 1.11-1.043q.394-.672.394-1.59t-.398-1.59a2.65 2.65 0 0 0-1.115-1.04Q13.017 6 12.035 6h-2.39zm2.294-4.792q.89 0 1.318.455.428.452.428 1.337 0 .886-.424 1.341-.42.45-1.305.451h-.756V7.208z"/>
</svg>
