<?xml version="1.0" standalone="no"?>
<!DOCTYPE svg PUBLIC "-//W3C//DTD SVG 1.1//EN" "http://www.w3.org/Graphics/SVG/1.1/DTD/svg11.dtd" >
<svg xmlns="http://www.w3.org/2000/svg">
<metadata>Generated by IcoMoon</metadata>
<defs>
<font id="VideoJS" horiz-adv-x="512">
<font-face units-per-em="512" ascent="480" descent="-32" />
<missing-glyph horiz-adv-x="512" />
<glyph unicode="&#x20;" d="" horiz-adv-x="256" />
<glyph unicode="&#x25b6;" d="M170.667 373.334v-298.666l234.667 149.333z" />
<glyph unicode="&#xe601;" d="M405.334 373.334v-298.666h-298.666v298.666h298.666zM405.334 416h-298.666c-23.573 0-42.666-19.094-42.666-42.666v-298.666c0-23.574 19.093-42.666 42.666-42.666h298.666c23.574 0 42.666 19.094 42.666 42.666v298.666c0 23.574-19.094 42.666-42.666 42.666z" />
<glyph unicode="&#xe603;" d="M256 330.667c-58.88 0-106.666-47.787-106.666-106.667s47.786-106.666 106.666-106.666 106.666 47.786 106.666 106.666-47.786 106.666-106.666 106.666zM256 437.334c-117.867 0-213.333-95.466-213.333-213.334s95.466-213.333 213.333-213.333 213.333 95.466 213.333 213.333-95.466 213.333-213.333 213.333zM256 53.334c-94.293 0-170.667 76.373-170.667 170.667s76.374 170.667 170.667 170.667 170.667-76.374 170.667-170.667-76.374-170.667-170.667-170.667z" />
<glyph unicode="&#xe61a;" d="M384 136.853c-16.214 0-30.827-6.293-41.92-16.426l-152 88.64c1.173 4.8 1.92 9.813 1.92 14.934s-0.746 10.133-1.92 14.934l150.4 87.786c11.413-10.666 26.666-17.28 43.52-17.28 35.307 0 64 28.693 64 64s-28.693 64-64 64-64-28.694-64-64c0-5.12 0.747-10.134 1.92-14.934l-150.4-87.786c-11.413 10.666-26.667 17.28-43.52 17.28-35.306 0-64-28.693-64-64s28.694-64 64-64c16.853 0 32.106 6.613 43.52 17.28l152-88.64c-1.067-4.48-1.707-9.173-1.707-13.974 0-34.346 27.84-62.187 62.187-62.187s62.187 27.84 62.187 62.187-27.84 62.187-62.187 62.187z" />
<glyph unicode="&#xe64b;" d="M149.333 181.334h-42.666v-106.666h106.666v42.666h-64v64zM106.666 266.667h42.666v64h64v42.666h-106.666v-106.666zM362.666 117.334h-64v-42.666h106.666v106.666h-42.666v-64zM298.666 373.334v-42.666h64v-64h42.666v106.666h-106.666z" />
<glyph unicode="&#xe64c;" d="M106.666 138.666h64v-64h42.666v106.666h-106.666v-42.666zM170.667 309.333h-64v-42.666h106.667v106.666h-42.666v-64zM298.666 74.666h42.666v64h64v42.666h-106.666v-106.666zM341.334 309.333v64h-42.666v-106.666h106.666v42.666h-64z" />
<glyph unicode="&#xe650;" d="M376.534 344.534c-30.827 30.933-73.387 50.134-120.534 50.134-94.293 0-170.453-76.374-170.453-170.667s76.16-170.667 170.453-170.667c79.466 0 146.026 54.4 164.906 128h-44.373c-17.6-49.707-64.746-85.334-120.534-85.334-70.72 0-128 57.28-128 128s57.28 128 128 128c35.307 0 66.986-14.72 90.134-37.867l-68.8-68.8h149.334v149.333l-50.134-50.133z" />
<glyph unicode="&#xe692;" d="M469.334 224c0-117.82-95.512-213.333-213.334-213.333s-213.333 95.512-213.333 213.333c0 117.821 95.513 213.333 213.333 213.333s213.333-95.512 213.333-213.333z" />
<glyph unicode="&#xe6e2;" d="M256 437.334c-117.867 0-213.333-95.466-213.333-213.334s95.466-213.333 213.333-213.333 213.333 95.466 213.333 213.333-95.466 213.333-213.333 213.333z" />
<glyph unicode="&#xe6f2;" d="M256 437.334c-117.867 0-213.333-95.466-213.333-213.334s95.466-213.333 213.333-213.333 213.333 95.466 213.333 213.333-95.466 213.333-213.333 213.333zM256 53.334c-94.080 0-170.667 76.587-170.667 170.667s76.587 170.667 170.667 170.667 170.667-76.587 170.667-170.667-76.587-170.667-170.667-170.667z" />
<glyph unicode="&#xe713;" d="M448 416h-384c-23.573 0-42.666-19.094-42.666-42.666v-64h42.666v64h384v-298.666h-149.333v-42.666h149.333c23.574 0 42.666 19.094 42.666 42.666v298.666c0 23.574-19.094 42.666-42.666 42.666zM21.334 96v-64h64c0 35.307-28.694 64-64 64zM21.334 181.334v-42.666c58.88 0 106.666-47.786 106.666-106.666h42.666c0 82.454-66.88 149.334-149.333 149.334zM21.334 266.667v-42.667c106.026 0 192-85.974 192-192h42.666c0 129.6-105.067 234.667-234.667 234.667z" />
<glyph unicode="&#xe80d;" d="M426.666 394.666h-341.334c-23.573 0-42.666-19.094-42.666-42.666v-256c0-23.574 19.093-42.666 42.666-42.666h341.334c23.574 0 42.666 19.094 42.666 42.666v256c0 23.573-19.094 42.666-42.666 42.666zM85.334 224h85.334v-42.666h-85.334v42.666zM298.666 96h-213.333v42.666h213.333v-42.666zM426.666 96h-85.334v42.666h85.334v-42.666zM426.666 181.334h-213.333v42.666h213.333v-42.666z" />
<glyph unicode="&#xe81e;" d="M405.334 394.666h-298.666c-23.573 0-42.666-19.094-42.666-42.666v-256c0-23.574 19.093-42.666 42.666-42.666h298.666c23.574 0 42.666 19.094 42.666 42.666v256c0 23.573-19.094 42.666-42.666 42.666zM234.667 245.333h-32v10.667h-42.667v-64h42.666v10.666h32v-21.334c0-11.733-9.494-21.334-21.334-21.334h-64c-11.84 0-21.334 9.6-21.334 21.334v85.334c0 11.733 9.493 21.334 21.334 21.334h64c11.84 0 21.334-9.6 21.334-21.334v-21.334zM384 245.333h-32v10.667h-42.666v-64h42.666v10.666h32v-21.334c0-11.733-9.493-21.334-21.334-21.334h-64c-11.84 0-21.334 9.6-21.334 21.334v85.334c0 11.733 9.493 21.334 21.334 21.334h64c11.84 0 21.334-9.6 21.334-21.334v-21.334z" />
<glyph unicode="&#xe821;" d="M85.334 96l181.333 128-181.333 128v-256zM277.334 352v-256l181.334 128-181.333 128z" />
<glyph unicode="&#xe822;" d="M234.667 96v256l-181.333-128 181.333-128zM245.333 224l181.333-128v256l-181.333-128z" />
<glyph unicode="&#xe825;" d="M405.334 394.666h-298.666c-23.573 0-42.666-19.094-42.666-42.666v-256c0-23.574 19.093-42.666 42.666-42.666h298.666c23.574 0 42.666 19.094 42.666 42.666v256c0 23.573-19.094 42.666-42.666 42.666zM234.667 160h-32v42.666h-42.667v-42.666h-32v128h32v-53.334h42.666v53.334h32v-128zM384 181.334c0-11.733-9.493-21.334-21.334-21.334h-16v-32h-32v32h-16c-11.84 0-21.334 9.6-21.334 21.334v85.334c0 11.733 9.493 21.334 21.334 21.334h64c11.84 0 21.334-9.6 21.334-21.334v-85.334zM309.334 192h42.666v64h-42.666v-64z" />
<glyph unicode="&#xe830;" d="M128 74.666h85.334v298.666h-85.334v-298.666zM298.666 373.334v-298.666h85.334v298.666h-85.334z" />
<glyph unicode="&#xe831;" d="M256 437.334c-117.867 0-213.333-95.466-213.333-213.334s95.466-213.333 213.333-213.333 213.333 95.466 213.333 213.333-95.466 213.333-213.333 213.333zM234.667 138.666h-42.667v170.666h42.666v-170.666zM320 138.666h-42.666v170.666h42.666v-170.666z" />
<glyph unicode="&#xe832;" d="M192 138.666h42.666v170.666h-42.666v-170.666zM256 437.334c-117.867 0-213.333-95.466-213.333-213.334s95.466-213.333 213.333-213.333 213.333 95.466 213.333 213.333-95.466 213.333-213.333 213.333zM256 53.334c-94.080 0-170.667 76.587-170.667 170.667s76.587 170.667 170.667 170.667 170.667-76.587 170.667-170.667-76.587-170.667-170.667-170.667zM277.334 138.666h42.666v170.666h-42.666v-170.666z" />
<glyph unicode="&#xe834;" d="M256 437.334c-117.867 0-213.333-95.466-213.333-213.334s95.466-213.333 213.333-213.333 213.333 95.466 213.333 213.333-95.466 213.333-213.333 213.333zM213.333 128v192l128-96-128-96z" />
<glyph unicode="&#xe835;" d="M213.333 128l128 96-128 96v-192zM256 437.334c-117.867 0-213.333-95.466-213.333-213.334s95.466-213.333 213.333-213.333 213.333 95.466 213.333 213.333-95.466 213.333-213.333 213.333zM256 53.334c-94.080 0-170.667 76.587-170.667 170.667s76.587 170.667 170.667 170.667 170.667-76.587 170.667-170.667-76.587-170.667-170.667-170.667z" />
<glyph unicode="&#xe840;" d="M128 96l181.333 128-181.333 128v-256zM341.334 352v-256h42.666v256h-42.666z" />
<glyph unicode="&#xe841;" d="M128 352h42.666v-256h-42.666zM202.667 224l181.333-128v256z" />
<glyph unicode="&#xe849;" d="M394.666 224c0 37.654-21.76 70.187-53.334 85.866v-171.84c31.574 15.786 53.334 48.32 53.334 85.974zM106.666 288v-128h85.334l106.666-106.666v341.334l-106.666-106.666h-85.334z" />
<glyph unicode="&#xe84a;" d="M149.333 288v-128h85.333l106.666-106.666v341.334l-106.666-106.666h-85.334z" />
<glyph unicode="&#xe84b;" d="M352 224c0 37.654-21.76 70.187-53.334 85.866v-47.146l52.373-52.374c0.64 4.48 0.96 9.067 0.96 13.654zM405.334 224c0-20.053-4.373-38.933-11.52-56.32l32.32-32.32c13.866 26.56 21.866 56.64 21.866 88.64 0 91.307-63.894 167.68-149.333 187.094v-44.053c61.654-18.347 106.666-75.413 106.666-143.040zM91.2 416l-27.2-27.2 100.8-100.8h-100.8v-128h85.334l106.666-106.666v143.466l90.774-90.774c-14.293-10.986-30.4-19.84-48.106-25.173v-44.053c29.334 6.72 56.106 20.16 78.613 38.613l43.52-43.413 27.2 27.2-356.8 356.8zM256 394.666l-44.587-44.587 44.587-44.587v89.173z" />
<glyph unicode="&#xe84c;" d="M64 288v-128h85.334l106.666-106.666v341.334l-106.666-106.666h-85.334zM352 224c0 37.654-21.76 70.187-53.334 85.866v-171.84c31.574 15.786 53.334 48.32 53.334 85.974zM298.666 411.094v-44.053c61.654-18.347 106.666-75.413 106.666-143.040s-45.014-124.693-106.666-143.040v-44.053c85.44 19.413 149.334 95.68 149.334 187.094s-63.894 167.68-149.333 187.094z" />
<glyph unicode="&#xe866;" d="M256 352v-64l85.334 85.334-85.334 85.334v-64c-94.293 0-170.667-76.374-170.667-170.667 0-33.493 9.814-64.534 26.453-90.88l31.147 31.147c-9.494 17.813-14.933 38.080-14.933 59.733 0 70.72 57.28 128 128 128zM400.214 314.88l-31.147-31.147c9.493-17.814 14.933-38.080 14.933-59.733 0-70.72-57.28-128-128-128v64l-85.334-85.334 85.334-85.334v64c94.293 0 170.667 76.374 170.667 170.667 0 33.493-9.813 64.534-26.454 90.88z" />
<glyph unicode="&#xe891;" d="M64 202.666h42.666v42.666h-42.666v-42.666zM64 117.334h42.666v42.666h-42.666v-42.666zM64 288h42.666v42.666h-42.666v-42.666zM149.333 202.666h298.667v42.666h-298.666v-42.666zM149.333 117.334h298.667v42.666h-298.666v-42.666zM149.333 330.667v-42.667h298.667v42.666h-298.666z" />
<glyph unicode="&#xe8b1;" d="M414.507 203.2c0.853 6.827 1.493 13.76 1.493 20.8s-0.64 13.974-1.493 20.8l45.12 35.306c4.053 3.2 5.226 8.96 2.56 13.654l-42.666 73.92c-2.666 4.587-8.214 6.507-13.014 4.587l-53.12-21.44c-10.986 8.427-23.040 15.573-36.053 21.014l-8 56.533c-0.96 5.014-5.334 8.96-10.666 8.96h-85.334c-5.333 0-9.707-3.947-10.56-8.96l-8-56.533c-13.013-5.44-25.066-12.48-36.053-21.014l-53.12 21.44c-4.8 1.814-10.347 0-13.013-4.587l-42.666-73.92c-2.666-4.587-1.493-10.346 2.56-13.654l45.014-35.306c-0.853-6.827-1.493-13.76-1.493-20.8s0.64-13.974 1.493-20.8l-45.014-35.306c-4.053-3.2-5.227-8.96-2.56-13.654l42.666-73.92c2.666-4.587 8.213-6.507 13.013-4.587l53.12 21.44c10.987-8.426 23.040-15.574 36.053-21.014l8-56.534c0.853-5.014 5.226-8.96 10.56-8.96h85.334c5.334 0 9.707 3.947 10.56 8.96l8 56.534c13.014 5.44 25.067 12.48 36.053 21.014l53.12-21.44c4.8-1.813 10.346 0 13.014 4.587l42.666 73.92c2.666 4.587 1.493 10.346-2.56 13.654l-45.014 35.307zM256 149.334c-41.28 0-74.666 33.387-74.666 74.666s33.387 74.666 74.666 74.666 74.666-33.387 74.666-74.666-33.387-74.666-74.666-74.666z" />
</font>
</defs>
</svg>
